<svg xmlns="http://www.w3.org/2000/svg" viewBox="0 0 400 400" role="img" aria-label="Turkish breakfast plate">
<defs>
<linearGradient id="b3" x1="0" y1="0" x2="1" y2="1"><stop offset="0" stop-color="#3a281e"/><stop offset="1" stop-color="#181009"/></linearGradient>
<linearGradient id="pl" x1="0" y1="0" x2="0" y2="1"><stop offset="0" stop-color="#f7f1e8"/><stop offset="1" stop-color="#ddcfba"/></linearGradient>
</defs>
<rect width="400" height="400" fill="url(#b3)"/>
<circle cx="200" cy="200" r="146" fill="none" stroke="#d9ab6a" stroke-opacity=".12" stroke-width="1.5"/>
<circle cx="200" cy="200" r="118" fill="none" stroke="#d9ab6a" stroke-opacity=".08" stroke-width="1.5"/>
<ellipse cx="200" cy="322" rx="118" ry="18" fill="#000" opacity=".3"/>
<circle cx="200" cy="212" r="108" fill="url(#pl)"/>
<circle cx="200" cy="212" r="94" fill="none" stroke="#c9b89e" stroke-width="2" opacity=".7"/>
<path d="M200 118a94 94 0 0 1 0 188z" fill="#eee5d6" opacity=".55"/>
<g stroke="#c9b89e" stroke-width="2.5" opacity=".65" fill="none">
<path d="M200 118v188"/><path d="M106 212h188"/>
</g>
<circle cx="156" cy="168" r="26" fill="#f4e8a8"/><circle cx="156" cy="168" r="11" fill="#f0b542"/>
<rect x="216" y="146" width="52" height="42" rx="7" fill="#f6f0df"/>
<g stroke="#dfd2b6" stroke-width="2.5"><path d="M226 156v22M240 152v30M254 158v20"/></g>
<circle cx="152" cy="256" r="24" fill="#7fa85e"/>
<circle cx="145" cy="250" r="6" fill="#9dc47a"/><circle cx="159" cy="262" r="5" fill="#9dc47a"/>
<rect x="214" y="230" width="58" height="48" rx="9" fill="#c8443f"/>
<circle cx="230" cy="246" r="5" fill="#e0645d"/><circle cx="252" cy="262" r="5" fill="#e0645d"/>
<circle cx="200" cy="212" r="22" fill="#e8dcc8"/>
<circle cx="200" cy="212" r="12" fill="#c8763f"/>
<g fill="#6fae87"><circle cx="188" cy="196" r="4"/><circle cx="214" cy="228" r="4"/></g>
<path d="M300 128h20a14 14 0 0 1 0 28h-20z" fill="none" stroke="#d9ab6a" stroke-width="9" stroke-linejoin="round"/>
<path d="M242 106h64v34a32 32 0 0 1-64 0z" fill="#f7f1e8"/>
<ellipse cx="274" cy="106" rx="32" ry="9" fill="#6b4529"/>
<g fill="none" stroke="#d9ab6a" stroke-opacity=".45" stroke-width="4.5" stroke-linecap="round">
<path d="M262 76c-6-9 5-13 0-22"/><path d="M286 76c-6-9 5-13 0-22"/>
</g>
<rect x="228" y="172" width="92" height="9" rx="4.5" fill="#2b1d16" opacity=".25"/>
</svg>
